<mxfile host="app.diagrams.net" modified="2022-11-30T02:34:50.556Z" agent="5.0 (Windows NT 10.0; Win64; x64) AppleWebKit/537.36 (KHTML, like Gecko) Chrome/107.0.0.0 Safari/537.36" version="20.6.0" etag="9tpX60NuRmn8uKbTdoat" type="github">
  <diagram id="k_nlBP7r1xbF9xTuwcN1" name="PÃ¡gina-1">
    <mxGraphModel dx="1038" dy="547" grid="1" gridSize="10" guides="1" tooltips="1" connect="1" arrows="1" fold="1" page="1" pageScale="1" pageWidth="827" pageHeight="1169" math="0" shadow="0">
      <root>
        <mxCell id="0" />
        <mxCell id="1" parent="0" />
        <mxCell id="ljILSTeiUByq0ZB5sK_c-7" value="" style="edgeStyle=orthogonalEdgeStyle;rounded=0;orthogonalLoop=1;jettySize=auto;html=1;" edge="1" parent="1" source="ljILSTeiUByq0ZB5sK_c-1" target="ljILSTeiUByq0ZB5sK_c-6">
          <mxGeometry relative="1" as="geometry" />
        </mxCell>
        <mxCell id="ljILSTeiUByq0ZB5sK_c-1" value="Checking numbers" style="rounded=1;whiteSpace=wrap;html=1;" vertex="1" parent="1">
          <mxGeometry x="340" y="40" width="120" height="60" as="geometry" />
        </mxCell>
        <mxCell id="ljILSTeiUByq0ZB5sK_c-9" value="" style="edgeStyle=orthogonalEdgeStyle;rounded=0;orthogonalLoop=1;jettySize=auto;html=1;" edge="1" parent="1" source="ljILSTeiUByq0ZB5sK_c-6" target="ljILSTeiUByq0ZB5sK_c-8">
          <mxGeometry relative="1" as="geometry" />
        </mxCell>
        <mxCell id="ljILSTeiUByq0ZB5sK_c-6" value="Receive number" style="shape=parallelogram;perimeter=parallelogramPerimeter;whiteSpace=wrap;html=1;fixedSize=1;rounded=1;" vertex="1" parent="1">
          <mxGeometry x="340" y="130" width="120" height="60" as="geometry" />
        </mxCell>
        <mxCell id="ljILSTeiUByq0ZB5sK_c-11" value="" style="edgeStyle=orthogonalEdgeStyle;rounded=0;orthogonalLoop=1;jettySize=auto;html=1;" edge="1" parent="1" source="ljILSTeiUByq0ZB5sK_c-8" target="ljILSTeiUByq0ZB5sK_c-10">
          <mxGeometry relative="1" as="geometry" />
        </mxCell>
        <mxCell id="ljILSTeiUByq0ZB5sK_c-8" value="Assign number to variable" style="whiteSpace=wrap;html=1;rounded=1;" vertex="1" parent="1">
          <mxGeometry x="340" y="210" width="120" height="60" as="geometry" />
        </mxCell>
        <mxCell id="ljILSTeiUByq0ZB5sK_c-10" value="Odd or Even?" style="rhombus;whiteSpace=wrap;html=1;rounded=1;" vertex="1" parent="1">
          <mxGeometry x="355" y="290" width="90" height="90" as="geometry" />
        </mxCell>
        <mxCell id="ljILSTeiUByq0ZB5sK_c-14" value="" style="endArrow=classic;html=1;rounded=0;exitX=1;exitY=0.5;exitDx=0;exitDy=0;" edge="1" parent="1" source="ljILSTeiUByq0ZB5sK_c-10">
          <mxGeometry width="50" height="50" relative="1" as="geometry">
            <mxPoint x="450" y="340" as="sourcePoint" />
            <mxPoint x="490" y="335" as="targetPoint" />
          </mxGeometry>
        </mxCell>
        <mxCell id="ljILSTeiUByq0ZB5sK_c-22" value="" style="edgeStyle=orthogonalEdgeStyle;rounded=0;orthogonalLoop=1;jettySize=auto;html=1;" edge="1" parent="1" source="ljILSTeiUByq0ZB5sK_c-15" target="ljILSTeiUByq0ZB5sK_c-21">
          <mxGeometry relative="1" as="geometry" />
        </mxCell>
        <mxCell id="ljILSTeiUByq0ZB5sK_c-15" value="Even" style="text;html=1;strokeColor=none;fillColor=none;align=center;verticalAlign=middle;whiteSpace=wrap;rounded=0;" vertex="1" parent="1">
          <mxGeometry x="490" y="320" width="60" height="30" as="geometry" />
        </mxCell>
        <mxCell id="ljILSTeiUByq0ZB5sK_c-16" value="" style="endArrow=classic;html=1;rounded=0;exitX=0;exitY=0.5;exitDx=0;exitDy=0;" edge="1" parent="1" source="ljILSTeiUByq0ZB5sK_c-10">
          <mxGeometry width="50" height="50" relative="1" as="geometry">
            <mxPoint x="455" y="345" as="sourcePoint" />
            <mxPoint x="310" y="335" as="targetPoint" />
          </mxGeometry>
        </mxCell>
        <mxCell id="ljILSTeiUByq0ZB5sK_c-20" value="" style="edgeStyle=orthogonalEdgeStyle;rounded=0;orthogonalLoop=1;jettySize=auto;html=1;" edge="1" parent="1" source="ljILSTeiUByq0ZB5sK_c-18" target="ljILSTeiUByq0ZB5sK_c-19">
          <mxGeometry relative="1" as="geometry" />
        </mxCell>
        <mxCell id="ljILSTeiUByq0ZB5sK_c-18" value="Odd" style="text;html=1;strokeColor=none;fillColor=none;align=center;verticalAlign=middle;whiteSpace=wrap;rounded=0;" vertex="1" parent="1">
          <mxGeometry x="250" y="320" width="60" height="30" as="geometry" />
        </mxCell>
        <mxCell id="ljILSTeiUByq0ZB5sK_c-19" value="The number is odd" style="shape=parallelogram;perimeter=parallelogramPerimeter;whiteSpace=wrap;html=1;fixedSize=1;" vertex="1" parent="1">
          <mxGeometry x="210" y="415" width="130" height="60" as="geometry" />
        </mxCell>
        <mxCell id="ljILSTeiUByq0ZB5sK_c-21" value="The number is even" style="shape=parallelogram;perimeter=parallelogramPerimeter;whiteSpace=wrap;html=1;fixedSize=1;" vertex="1" parent="1">
          <mxGeometry x="460" y="415" width="130" height="60" as="geometry" />
        </mxCell>
      </root>
    </mxGraphModel>
  </diagram>
</mxfile>
